<?xml version="1.0" encoding="UTF-8"?>
<svg width="17px" height="22px" viewBox="0 0 17 22" version="1.1" xmlns="http://www.w3.org/2000/svg" xmlns:xlink="http://www.w3.org/1999/xlink">
    <!-- Generator: sketchtool 53.2 (72643) - https://sketchapp.com -->
    <title>D9CC8999-8218-4D03-96EE-66D434FC7623</title>
    <desc>Created with sketchtool.</desc>
    <g id="Design" stroke="none" stroke-width="1" fill="none" fill-rule="evenodd">
        <g id="About" transform="translate(-1004.000000, -382.000000)" fill="#FFFFFF" fill-rule="nonzero">
            <g id="col-right----Text" transform="translate(685.000000, 139.000000)">
                <g id="more-info" transform="translate(0.000000, 241.000000)">
                    <g id="location">
                        <path d="M327.25,2 C322.700925,2 319,5.57423092 319,9.96753315 C319,15.4197585 326.382942,23.4239441 326.697277,23.7620226 C326.992525,24.079605 327.508009,24.0790464 327.802723,23.7620226 C328.117058,23.4239441 335.5,15.4197585 335.5,9.96753315 C335.499911,5.57423092 331.79903,2 327.25,2 Z M326.944467,14.2222222 C324.585652,14.2222222 322.666667,12.440284 322.666667,10.2499787 C322.666667,8.05967343 324.585698,6.27777778 326.944467,6.27777778 C329.303237,6.27777778 331.222222,8.05971601 331.222222,10.2500213 C331.222222,12.4403266 329.303237,14.2222222 326.944467,14.2222222 Z" id="Shape"></path>
                    </g>
                </g>
            </g>
        </g>
    </g>
</svg>